<svg width="62" height="48" viewBox="0 0 62 48" fill="none" xmlns="http://www.w3.org/2000/svg">
<path d="M1 35C1 36.6569 2.34315 38 4 38C5.65685 38 7 36.6569 7 35H1ZM4 3L6.66641 1.62513C6.03197 0.394697 4.63796 -0.241836 3.29262 0.0845902C1.94728 0.411016 1 1.61563 1 3H4ZM20.5 35L17.8336 36.3749C18.3482 37.3729 19.3771 38 20.5 38C21.6229 38 22.6518 37.3729 23.1664 36.3749L20.5 35ZM34 35C34 36.6569 35.3431 38 37 38C38.6569 38 40 36.6569 40 35H34ZM37 3H40C40 1.61563 39.0527 0.411016 37.7074 0.0845902C36.362 -0.241836 34.968 0.394697 34.3336 1.62513L37 3ZM7 35V3H1V35H7ZM1.33359 4.37487L17.8336 36.3749L23.1664 33.6251L6.66641 1.62513L1.33359 4.37487ZM40 35V3H34V35H40ZM34.3336 1.62513L17.8336 33.6251L23.1664 36.3749L39.6664 4.37487L34.3336 1.62513Z" fill="#1E3958"/>
<path d="M42 36V5C42 5 48.2414 9.0555 51.2865 11.5577C54.1886 13.9423 44.902 20.5 44.902 20.5L59 36M47.44 36L59 25.15" stroke="#1E3958" stroke-width="3.10345" stroke-linecap="round"/>
<path d="M1.68 44.096C1.704 44.376 1.764 44.636 1.86 44.876C1.956 45.108 2.08 45.312 2.232 45.488C2.392 45.656 2.576 45.788 2.784 45.884C3 45.98 3.236 46.028 3.492 46.028C3.716 46.028 3.928 46.004 4.128 45.956C4.336 45.9 4.516 45.82 4.668 45.716C4.828 45.604 4.956 45.464 5.052 45.296C5.148 45.12 5.196 44.912 5.196 44.672C5.196 44.48 5.14 44.316 5.028 44.18C4.924 44.036 4.784 43.912 4.608 43.808C4.44 43.704 4.244 43.616 4.02 43.544C3.796 43.464 3.572 43.388 3.348 43.316C3.012 43.212 2.672 43.1 2.328 42.98C1.992 42.86 1.688 42.704 1.416 42.512C1.144 42.32 0.92 42.08 0.744 41.792C0.576 41.504 0.492 41.144 0.492 40.712C0.492 40.352 0.56 40.032 0.696 39.752C0.84 39.472 1.04 39.24 1.296 39.056C1.552 38.864 1.856 38.72 2.208 38.624C2.568 38.528 2.96 38.48 3.384 38.48C3.944 38.48 4.412 38.568 4.788 38.744C5.164 38.92 5.464 39.144 5.688 39.416C5.92 39.688 6.088 39.988 6.192 40.316C6.296 40.644 6.36 40.96 6.384 41.264H4.956C4.932 41 4.876 40.772 4.788 40.58C4.7 40.38 4.584 40.212 4.44 40.076C4.296 39.94 4.132 39.84 3.948 39.776C3.772 39.704 3.584 39.668 3.384 39.668C3.2 39.668 3.02 39.688 2.844 39.728C2.668 39.76 2.508 39.82 2.364 39.908C2.228 39.988 2.116 40.096 2.028 40.232C1.94 40.36 1.896 40.52 1.896 40.712C1.896 40.904 1.948 41.072 2.052 41.216C2.164 41.36 2.308 41.488 2.484 41.6C2.66 41.704 2.86 41.796 3.084 41.876C3.308 41.956 3.536 42.032 3.768 42.104C4.104 42.208 4.44 42.324 4.776 42.452C5.112 42.58 5.412 42.744 5.676 42.944C5.948 43.136 6.168 43.372 6.336 43.652C6.512 43.932 6.6 44.272 6.6 44.672C6.6 45.096 6.52 45.468 6.36 45.788C6.208 46.1 5.992 46.364 5.712 46.58C5.44 46.796 5.112 46.956 4.728 47.06C4.352 47.172 3.94 47.228 3.492 47.228C3.084 47.228 2.688 47.156 2.304 47.012C1.92 46.868 1.576 46.66 1.272 46.388C0.976 46.116 0.736 45.788 0.552 45.404C0.368 45.012 0.268 44.576 0.252 44.096H1.68ZM15.0107 42.86C15.0107 43.5 14.9267 44.088 14.7587 44.624C14.5907 45.152 14.3427 45.608 14.0147 45.992C13.6947 46.376 13.2947 46.676 12.8147 46.892C12.3427 47.1 11.8027 47.204 11.1947 47.204C10.5867 47.204 10.0467 47.1 9.57469 46.892C9.11069 46.676 8.71469 46.376 8.38669 45.992C8.06669 45.608 7.82269 45.152 7.65469 44.624C7.48669 44.088 7.40269 43.5 7.40269 42.86C7.40269 42.22 7.48669 41.636 7.65469 41.108C7.82269 40.572 8.06669 40.112 8.38669 39.728C8.71469 39.344 9.11069 39.044 9.57469 38.828C10.0467 38.612 10.5867 38.504 11.1947 38.504C11.8027 38.504 12.3427 38.612 12.8147 38.828C13.2947 39.044 13.6947 39.344 14.0147 39.728C14.3427 40.112 14.5907 40.572 14.7587 41.108C14.9267 41.636 15.0107 42.22 15.0107 42.86ZM13.6067 42.86C13.6067 42.364 13.5427 41.92 13.4147 41.528C13.2947 41.136 13.1267 40.808 12.9107 40.544C12.6947 40.272 12.4387 40.064 12.1427 39.92C11.8467 39.776 11.5307 39.704 11.1947 39.704C10.8587 39.704 10.5427 39.776 10.2467 39.92C9.95869 40.064 9.70669 40.272 9.49069 40.544C9.28269 40.808 9.11469 41.136 8.98669 41.528C8.86669 41.92 8.80669 42.364 8.80669 42.86C8.80669 43.356 8.86669 43.8 8.98669 44.192C9.11469 44.576 9.28269 44.904 9.49069 45.176C9.70669 45.448 9.95869 45.656 10.2467 45.8C10.5427 45.944 10.8587 46.016 11.1947 46.016C11.5307 46.016 11.8467 45.944 12.1427 45.8C12.4387 45.656 12.6947 45.448 12.9107 45.176C13.1267 44.904 13.2947 44.576 13.4147 44.192C13.5427 43.8 13.6067 43.356 13.6067 42.86ZM17.4819 38.696V45.788H21.4299V47H16.0659V38.696H17.4819ZM23.4588 38.696V44.204C23.4588 44.492 23.5068 44.752 23.6028 44.984C23.7068 45.208 23.8388 45.4 23.9988 45.56C24.1668 45.712 24.3508 45.832 24.5508 45.92C24.7588 46 24.9668 46.04 25.1748 46.04C25.3988 46.04 25.6228 46.004 25.8468 45.932C26.0708 45.852 26.2708 45.736 26.4468 45.584C26.6228 45.432 26.7628 45.244 26.8668 45.02C26.9788 44.796 27.0348 44.532 27.0348 44.228V38.696H28.4388V44.168C28.4388 44.664 28.3428 45.104 28.1508 45.488C27.9588 45.864 27.7068 46.184 27.3948 46.448C27.0828 46.704 26.7308 46.896 26.3388 47.024C25.9548 47.16 25.5708 47.228 25.1868 47.228C24.8108 47.228 24.4348 47.16 24.0588 47.024C23.6908 46.896 23.3588 46.704 23.0628 46.448C22.7668 46.192 22.5228 45.872 22.3308 45.488C22.1468 45.104 22.0548 44.66 22.0548 44.156V38.696H23.4588ZM35.7353 38.696V39.908H33.1313V47H31.7273V39.908H29.1233V38.696H35.7353ZM37.7305 38.696V47H36.3265V38.696H37.7305ZM46.1826 42.86C46.1826 43.5 46.0986 44.088 45.9306 44.624C45.7626 45.152 45.5146 45.608 45.1866 45.992C44.8666 46.376 44.4666 46.676 43.9866 46.892C43.5146 47.1 42.9746 47.204 42.3666 47.204C41.7586 47.204 41.2186 47.1 40.7466 46.892C40.2826 46.676 39.8866 46.376 39.5586 45.992C39.2386 45.608 38.9946 45.152 38.8266 44.624C38.6586 44.088 38.5746 43.5 38.5746 42.86C38.5746 42.22 38.6586 41.636 38.8266 41.108C38.9946 40.572 39.2386 40.112 39.5586 39.728C39.8866 39.344 40.2826 39.044 40.7466 38.828C41.2186 38.612 41.7586 38.504 42.3666 38.504C42.9746 38.504 43.5146 38.612 43.9866 38.828C44.4666 39.044 44.8666 39.344 45.1866 39.728C45.5146 40.112 45.7626 40.572 45.9306 41.108C46.0986 41.636 46.1826 42.22 46.1826 42.86ZM44.7786 42.86C44.7786 42.364 44.7146 41.92 44.5866 41.528C44.4666 41.136 44.2986 40.808 44.0826 40.544C43.8666 40.272 43.6106 40.064 43.3146 39.92C43.0186 39.776 42.7026 39.704 42.3666 39.704C42.0306 39.704 41.7146 39.776 41.4186 39.92C41.1306 40.064 40.8786 40.272 40.6626 40.544C40.4546 40.808 40.2866 41.136 40.1586 41.528C40.0386 41.92 39.9786 42.364 39.9786 42.86C39.9786 43.356 40.0386 43.8 40.1586 44.192C40.2866 44.576 40.4546 44.904 40.6626 45.176C40.8786 45.448 41.1306 45.656 41.4186 45.8C41.7146 45.944 42.0306 46.016 42.3666 46.016C42.7026 46.016 43.0186 45.944 43.3146 45.8C43.6106 45.656 43.8666 45.448 44.0826 45.176C44.2986 44.904 44.4666 44.576 44.5866 44.192C44.7146 43.8 44.7786 43.356 44.7786 42.86ZM48.7378 38.696L52.2658 44.672V38.696H53.6698V47H52.0858L48.5458 41.012V47H47.1418V38.696H48.7378ZM55.9378 44.096C55.9618 44.376 56.0218 44.636 56.1178 44.876C56.2138 45.108 56.3378 45.312 56.4898 45.488C56.6498 45.656 56.8338 45.788 57.0418 45.884C57.2578 45.98 57.4938 46.028 57.7498 46.028C57.9738 46.028 58.1858 46.004 58.3858 45.956C58.5938 45.9 58.7738 45.82 58.9258 45.716C59.0858 45.604 59.2138 45.464 59.3098 45.296C59.4058 45.12 59.4538 44.912 59.4538 44.672C59.4538 44.48 59.3978 44.316 59.2858 44.18C59.1818 44.036 59.0418 43.912 58.8658 43.808C58.6978 43.704 58.5018 43.616 58.2778 43.544C58.0538 43.464 57.8298 43.388 57.6058 43.316C57.2698 43.212 56.9298 43.1 56.5858 42.98C56.2498 42.86 55.9458 42.704 55.6738 42.512C55.4018 42.32 55.1778 42.08 55.0018 41.792C54.8338 41.504 54.7498 41.144 54.7498 40.712C54.7498 40.352 54.8178 40.032 54.9538 39.752C55.0978 39.472 55.2978 39.24 55.5538 39.056C55.8098 38.864 56.1138 38.72 56.4658 38.624C56.8258 38.528 57.2178 38.48 57.6418 38.48C58.2018 38.48 58.6698 38.568 59.0458 38.744C59.4218 38.92 59.7218 39.144 59.9458 39.416C60.1778 39.688 60.3458 39.988 60.4498 40.316C60.5538 40.644 60.6178 40.96 60.6418 41.264H59.2138C59.1898 41 59.1338 40.772 59.0458 40.58C58.9578 40.38 58.8418 40.212 58.6978 40.076C58.5538 39.94 58.3898 39.84 58.2058 39.776C58.0298 39.704 57.8418 39.668 57.6418 39.668C57.4578 39.668 57.2778 39.688 57.1018 39.728C56.9258 39.76 56.7658 39.82 56.6218 39.908C56.4858 39.988 56.3738 40.096 56.2858 40.232C56.1978 40.36 56.1538 40.52 56.1538 40.712C56.1538 40.904 56.2058 41.072 56.3098 41.216C56.4218 41.36 56.5658 41.488 56.7418 41.6C56.9178 41.704 57.1178 41.796 57.3418 41.876C57.5658 41.956 57.7938 42.032 58.0258 42.104C58.3618 42.208 58.6978 42.324 59.0338 42.452C59.3698 42.58 59.6698 42.744 59.9338 42.944C60.2058 43.136 60.4258 43.372 60.5938 43.652C60.7698 43.932 60.8578 44.272 60.8578 44.672C60.8578 45.096 60.7778 45.468 60.6178 45.788C60.4658 46.1 60.2498 46.364 59.9698 46.58C59.6978 46.796 59.3698 46.956 58.9858 47.06C58.6098 47.172 58.1978 47.228 57.7498 47.228C57.3418 47.228 56.9458 47.156 56.5618 47.012C56.1778 46.868 55.8338 46.66 55.5298 46.388C55.2338 46.116 54.9938 45.788 54.8098 45.404C54.6258 45.012 54.5258 44.576 54.5098 44.096H55.9378Z" fill="#1E3958"/>
<circle cx="54" cy="23" r="3" fill="#1E3958"/>
<circle cx="52.5" cy="22.5" r="0.5" fill="#D9D9D9"/>
<circle cx="55.5" cy="22.5" r="0.5" fill="#D9D9D9"/>
<path d="M53 24H53.5L54 24.5L54.5 24H55" stroke="#D9D9D9" stroke-width="0.2" stroke-linecap="round"/>
</svg>
